<?xml version="1.0" encoding="utf-8"?>
<!-- Generator: Adobe Illustrator 23.0.5, SVG Export Plug-In . SVG Version: 6.00 Build 0)  -->
<svg version="1.1" id="Capa_1" xmlns="http://www.w3.org/2000/svg" xmlns:xlink="http://www.w3.org/1999/xlink" x="0px" y="0px"
	 viewBox="0 0 595.28 841.89" style="enable-background:new 0 0 595.28 841.89;" xml:space="preserve">
<style type="text/css">
	.st0{fill:#E94F1B;}
	.st1{fill:#FFFFFF;}
	.st2{fill:#2A1D1B;}
</style>
<polygon class="st0" points="173.23,173.52 173.03,282.41 257.36,282.41 257.36,257.82 204.01,257.82 204.01,237.14 244.91,237.14 
	244.91,213.87 204.01,213.87 204.01,196.72 256.19,196.72 256.19,173.52 "/>
<polygon class="st0" points="261.17,173.52 261.17,282.67 292.38,282.41 292.38,173.67 "/>
<polygon class="st0" points="303.51,173.67 303.45,236.96 303.51,282.53 332.45,282.53 332.45,256.53 344.09,243.84 370.88,282.67 
	395.77,282.67 404.37,282.53 383.04,249.32 364.36,221.8 405.95,173.67 364.89,173.52 332.45,211.68 332.45,173.67 "/>
<path class="st0" d="M170.28,227.22c0,45.29-36.83,82.01-82.25,82.01c-45.43,0-82.25-36.72-82.25-82.01c0-45.29,36.83-82,82.25-82
	C133.45,145.22,170.28,181.93,170.28,227.22"/>
<path class="st1" d="M64.96,226.12c1.87-1.94,26.55-34.78,36.52-48.45h32.21c-1.17,1.62-28.03,33.01-40.69,47.9
	c-0.91,1.07-0.79,1.62,0.02,2.58c6.63,7.85,13.2,15.75,19.81,23.63c7.78,9.28,16.64,19.77,24.43,29.04c0,0-3.04-0.01-3.8,0
	c-6.36,0-9.7,0.01-16.07,0.01c-4.07,0-7.63-0.01-12.22,0.02c-1.34,0.03-0.53-0.03-1.91-0.03c-7.87-10.41-16.88-22.23-24.77-32.62
	c-4.21-5.54-13.02-17.84-13.77-17.96c0,0.79-0.13,2.19-0.13,3.03c0.03,15.02,0.07,32.53,0.11,47.55c-0.55,0,0.01-0.01-2.47,0
	c-7.35,0.01-14.7,0.01-22.05,0c-2.37,0-0.82,0-2.38,0c0.01-32.75,0.02-70.4,0.03-103.15h3.09c7.43-0.07,23.93,0,23.93,0
	c-0.07,14.38,0.11,30.88,0.12,45.26C64.95,223.95,64.95,223.95,64.96,226.12"/>
<path class="st0" d="M451.39,282.35c-31.56,0.17-53.23-26.06-52.77-54.73c0.49-30.67,24.62-55.69,57.55-54.03
	c29.97,1.51,51.97,26.29,51.46,56.12C507.11,259.8,481.53,283.66,451.39,282.35 M427.3,227.59c0.12,2.54-0.02,4.46,0.36,6.26
	c0.45,2.11,1.28,4.14,2.06,6.16c3.11,8.01,13.28,15.05,21.9,15.01c10.63-0.05,19.07-4.29,24.05-13.92
	c3.97-7.67,4.56-15.76,0.84-23.78c-3.31-7.13-8.24-12.36-16.18-14.79c-6.31-1.93-12.17-2.05-18.07,0.84
	C431.91,208.44,427.6,217.13,427.3,227.59"/>
<path class="st2" d="M176.56,319.23c-0.94,0-1.73-0.32-2.37-0.96c-0.64-0.64-0.96-1.43-0.96-2.37v-22.64c0-0.94,0.32-1.73,0.96-2.37
	c0.64-0.64,1.43-0.96,2.36-0.96h7.17c1.31,0,2.54,0.25,3.69,0.76c1.15,0.51,2.15,1.2,3.01,2.09c0.85,0.88,1.53,1.91,2.02,3.09
	c0.49,1.18,0.74,2.44,0.74,3.77c0,1.34-0.25,2.6-0.74,3.77c-0.49,1.18-1.17,2.21-2.02,3.09c-0.85,0.88-1.86,1.58-3,2.09
	c-1.15,0.51-2.38,0.76-3.68,0.76h-3.84v6.54c0,0.94-0.32,1.73-0.96,2.37C178.28,318.91,177.49,319.23,176.56,319.23 M179.89,295.46
	v8.35h3.01c0.51,0,0.99-0.11,1.45-0.32c0.45-0.21,0.86-0.51,1.2-0.88c0.35-0.37,0.62-0.82,0.82-1.32c0.2-0.51,0.3-1.04,0.3-1.61
	c0-0.59-0.1-1.14-0.3-1.65c-0.2-0.51-0.48-0.95-0.82-1.32c-0.35-0.37-0.75-0.68-1.2-0.9c-0.46-0.23-0.94-0.34-1.45-0.34H179.89z"/>
<path class="st2" d="M201.49,319.23c-0.94,0-1.73-0.32-2.37-0.96c-0.64-0.64-0.96-1.43-0.96-2.37v-22.64c0-0.94,0.32-1.73,0.96-2.37
	c0.64-0.64,1.43-0.96,2.37-0.96h9.88c1.31,0,2.54,0.25,3.69,0.76c1.15,0.51,2.15,1.2,3.01,2.09c0.86,0.88,1.53,1.91,2.03,3.09
	c0.5,1.18,0.74,2.44,0.74,3.77c0,1.77-0.42,3.38-1.26,4.84c-0.84,1.46-1.95,2.62-3.31,3.47l3.45,6.87c0.21,0.4,0.32,0.86,0.32,1.37
	c0,0.8-0.29,1.51-0.86,2.13c-0.58,0.62-1.31,0.92-2.19,0.92c-0.56,0-1.08-0.15-1.57-0.44c-0.48-0.3-0.86-0.7-1.12-1.21l-4.14-8.23
	h-5.34v6.54c0,0.94-0.32,1.73-0.96,2.37C203.22,318.91,202.43,319.23,201.49,319.23 M204.82,295.46v8.35h5.82
	c1.12,0,2.04-0.4,2.75-1.2c0.71-0.8,1.06-1.78,1.06-2.93c0-0.59-0.1-1.14-0.3-1.65c-0.2-0.51-0.48-0.95-0.82-1.32
	c-0.35-0.37-0.76-0.68-1.22-0.9c-0.47-0.23-0.96-0.34-1.47-0.34H204.82z"/>
<path class="st2" d="M233.09,313.01h10.56c0.78,0,1.43,0.27,1.97,0.8c0.53,0.54,0.8,1.19,0.8,1.97c0,0.78-0.27,1.43-0.8,1.97
	c-0.54,0.54-1.19,0.8-1.97,0.8h-13.89c-0.94,0-1.73-0.32-2.37-0.96c-0.64-0.64-0.96-1.43-0.96-2.37v-21.96
	c0-0.94,0.32-1.73,0.96-2.37c0.64-0.64,1.43-0.96,2.37-0.96h13.89c0.78,0,1.43,0.27,1.97,0.8c0.53,0.54,0.8,1.19,0.8,1.97
	c0,0.78-0.27,1.43-0.8,1.97c-0.54,0.54-1.19,0.8-1.97,0.8h-10.56V301H241c0.78,0,1.43,0.27,1.97,0.8c0.54,0.54,0.8,1.19,0.8,1.97
	c0,0.78-0.27,1.43-0.8,1.97c-0.54,0.54-1.19,0.8-1.97,0.8h-7.91V313.01z"/>
<path class="st2" d="M267.98,298.31c-0.56,0-1.08-0.13-1.55-0.4c-0.47-0.27-0.84-0.65-1.1-1.16c-0.24-0.45-0.68-0.9-1.32-1.32
	c-0.64-0.43-1.38-0.64-2.21-0.64c-0.62,0-1.14,0.08-1.57,0.24c-0.43,0.16-0.78,0.37-1.04,0.62c-0.27,0.25-0.46,0.53-0.56,0.82
	c-0.11,0.29-0.16,0.58-0.16,0.84c0,0.43,0.13,0.79,0.4,1.08c0.27,0.3,0.63,0.56,1.08,0.8c0.45,0.24,0.97,0.46,1.56,0.66
	c0.59,0.2,1.21,0.4,1.88,0.58c1.09,0.32,2.22,0.69,3.38,1.1c1.16,0.42,2.22,0.96,3.16,1.63c0.95,0.67,1.72,1.51,2.32,2.53
	c0.6,1.02,0.9,2.3,0.9,3.86c0,1.34-0.25,2.6-0.76,3.77c-0.51,1.18-1.25,2.2-2.23,3.07c-0.98,0.87-2.17,1.56-3.59,2.07
	c-1.42,0.51-3.03,0.76-4.82,0.76c-2.46,0-4.55-0.49-6.26-1.48c-1.71-0.98-3-2.28-3.85-3.9c-0.27-0.45-0.4-0.97-0.4-1.53
	c0-0.86,0.29-1.61,0.86-2.27c0.58-0.65,1.34-0.98,2.31-0.98c0.64,0,1.2,0.18,1.69,0.54c0.48,0.36,0.91,0.85,1.29,1.46
	c0.45,0.72,1.04,1.34,1.75,1.85c0.71,0.51,1.6,0.76,2.67,0.76c1.53,0,2.7-0.38,3.53-1.14c0.83-0.76,1.24-1.78,1.24-3.07
	c0-0.51-0.14-0.94-0.42-1.3c-0.28-0.36-0.66-0.68-1.14-0.94c-0.48-0.27-1.04-0.5-1.69-0.7c-0.64-0.2-1.33-0.41-2.05-0.62
	c-1.1-0.32-2.21-0.67-3.33-1.06c-1.12-0.39-2.14-0.9-3.05-1.52c-0.91-0.63-1.65-1.42-2.23-2.39c-0.58-0.96-0.86-2.18-0.86-3.65
	c0-1.02,0.21-2.01,0.63-2.99c0.42-0.97,1.04-1.84,1.88-2.58c0.83-0.75,1.88-1.35,3.13-1.8c1.25-0.45,2.7-0.68,4.36-0.68
	c1.1,0,2.11,0.13,3.03,0.38c0.92,0.25,1.75,0.58,2.47,0.98c0.72,0.4,1.36,0.86,1.91,1.38c0.55,0.52,1,1.06,1.35,1.63
	c0.35,0.51,0.52,1.06,0.52,1.65c0,0.4-0.07,0.78-0.22,1.14c-0.15,0.36-0.36,0.68-0.64,0.96c-0.28,0.28-0.61,0.51-0.98,0.68
	C268.85,298.23,268.43,298.31,267.98,298.31"/>
<path class="st2" d="M281.51,319.23c-0.94,0-1.73-0.32-2.37-0.96c-0.64-0.64-0.96-1.43-0.96-2.37v-23.33c0-0.94,0.32-1.73,0.96-2.37
	c0.64-0.64,1.43-0.96,2.37-0.96c0.94,0,1.73,0.32,2.37,0.96c0.64,0.64,0.96,1.43,0.96,2.37v23.33c0,0.94-0.32,1.73-0.96,2.37
	C283.23,318.91,282.44,319.23,281.51,319.23"/>
<path class="st2" d="M291.18,293.25c0-0.94,0.32-1.73,0.97-2.37c0.64-0.64,1.43-0.96,2.37-0.96h8.16c1.93,0,3.74,0.38,5.43,1.12
	c1.69,0.75,3.16,1.77,4.42,3.07c1.26,1.3,2.25,2.82,2.97,4.56c0.72,1.74,1.09,3.6,1.09,5.58c0,1.98-0.36,3.83-1.09,5.56
	c-0.72,1.73-1.72,3.24-2.97,4.54c-1.26,1.3-2.74,2.32-4.42,3.07c-1.69,0.75-3.5,1.13-5.43,1.13h-8.16c-0.94,0-1.73-0.32-2.37-0.96
	c-0.64-0.64-0.97-1.43-0.97-2.37V293.25z M297.85,313.01h4.06c1.12,0,2.18-0.23,3.17-0.68c0.99-0.45,1.86-1.08,2.61-1.88
	c0.75-0.8,1.34-1.74,1.77-2.8c0.43-1.07,0.64-2.2,0.64-3.4c0-1.2-0.21-2.34-0.64-3.4c-0.43-1.07-1.02-2-1.77-2.79
	c-0.75-0.79-1.62-1.41-2.61-1.88c-0.99-0.47-2.05-0.7-3.17-0.7h-4.06V313.01z"/>
<path class="st2" d="M325.22,313.01h10.56c0.78,0,1.43,0.27,1.97,0.8c0.54,0.54,0.8,1.19,0.8,1.97c0,0.78-0.27,1.43-0.8,1.97
	c-0.54,0.54-1.19,0.8-1.97,0.8h-13.89c-0.94,0-1.73-0.32-2.37-0.96c-0.64-0.64-0.96-1.43-0.96-2.37v-21.96
	c0-0.94,0.32-1.73,0.96-2.37c0.64-0.64,1.43-0.96,2.37-0.96h13.89c0.78,0,1.43,0.27,1.97,0.8c0.54,0.54,0.8,1.19,0.8,1.97
	c0,0.78-0.27,1.43-0.8,1.97c-0.54,0.54-1.19,0.8-1.97,0.8h-10.56V301h7.91c0.77,0,1.43,0.27,1.97,0.8c0.54,0.54,0.8,1.19,0.8,1.97
	c0,0.78-0.27,1.43-0.8,1.97c-0.53,0.54-1.19,0.8-1.97,0.8h-7.91V313.01z"/>
<path class="st2" d="M358.69,292.57c0-0.94,0.32-1.73,0.96-2.37c0.64-0.64,1.43-0.96,2.37-0.96c0.94,0,1.73,0.32,2.37,0.96
	c0.64,0.64,0.96,1.43,0.96,2.37v22.6c0,0.56-0.11,1.09-0.32,1.59c-0.21,0.5-0.51,0.92-0.88,1.28c-0.37,0.36-0.81,0.65-1.3,0.86
	c-0.5,0.21-1.02,0.32-1.59,0.32c-0.72,0-1.4-0.19-2.03-0.56c-0.63-0.37-1.13-0.88-1.5-1.52l-8.39-15.62v14.37
	c0,0.94-0.32,1.73-0.96,2.37c-0.64,0.64-1.43,0.96-2.37,0.96c-0.94,0-1.73-0.32-2.37-0.96c-0.64-0.64-0.96-1.43-0.96-2.37v-22.56
	c0-0.56,0.11-1.09,0.32-1.59c0.21-0.5,0.51-0.93,0.88-1.31c0.37-0.37,0.81-0.67,1.31-0.88c0.49-0.21,1.02-0.32,1.59-0.32
	c0.75,0,1.45,0.18,2.09,0.54c0.64,0.36,1.14,0.88,1.49,1.55l8.35,16.26V292.57z"/>
<path class="st2" d="M369.67,292.69c0-0.78,0.27-1.43,0.8-1.97c0.54-0.53,1.19-0.8,1.97-0.8h17.14c0.78,0,1.43,0.27,1.97,0.8
	c0.54,0.54,0.8,1.19,0.8,1.97c0,0.78-0.27,1.43-0.8,1.97c-0.54,0.54-1.19,0.8-1.97,0.8h-5.22v20.44c0,0.94-0.32,1.73-0.96,2.37
	c-0.64,0.64-1.43,0.96-2.37,0.96c-0.94,0-1.73-0.32-2.37-0.96c-0.64-0.64-0.96-1.43-0.96-2.37v-20.44h-5.26
	c-0.78,0-1.43-0.27-1.97-0.8C369.93,294.12,369.67,293.47,369.67,292.69"/>
<path class="st2" d="M400.05,292.29c0.3-0.91,0.82-1.65,1.59-2.21c0.76-0.56,1.61-0.84,2.55-0.84c0.96,0,1.82,0.28,2.57,0.84
	c0.75,0.56,1.27,1.3,1.57,2.21l6.91,22.85c0.11,0.3,0.16,0.62,0.16,0.96c0,0.86-0.3,1.59-0.9,2.21c-0.6,0.62-1.36,0.92-2.27,0.92
	c-0.7,0-1.32-0.21-1.89-0.62c-0.56-0.41-0.94-0.97-1.12-1.67l-1-3.53h-8.03l-0.96,3.53c-0.21,0.7-0.6,1.25-1.16,1.67
	c-0.56,0.41-1.19,0.62-1.89,0.62c-0.91,0-1.66-0.31-2.25-0.92c-0.59-0.62-0.88-1.35-0.88-2.21c0-0.35,0.05-0.67,0.16-0.96
	L400.05,292.29z M406.55,307.87l-2.37-9.88l-2.33,9.88H406.55z"/>
<path class="st0" d="M436.29,315.03c0.44,0.44,0.66,0.99,0.66,1.65c0,0.63-0.22,1.16-0.66,1.59c-0.44,0.43-0.99,0.64-1.65,0.64
	h-14.02c-0.71,0-1.28-0.22-1.69-0.66c-0.41-0.44-0.62-1-0.62-1.69c0-0.69,0.25-1.29,0.74-1.81l8.99-9.61
	c1.02-1.1,1.82-2.21,2.41-3.32c0.59-1.11,0.89-2.14,0.89-3.07c0-1.24-0.44-2.31-1.32-3.22c-0.88-0.91-1.9-1.36-3.05-1.36
	c-0.8,0-1.6,0.27-2.41,0.8c-0.81,0.54-1.55,1.24-2.21,2.12c-0.49,0.66-1.13,0.99-1.9,0.99c-0.6,0-1.16-0.23-1.67-0.7
	c-0.51-0.47-0.76-0.99-0.76-1.57c0-0.41,0.14-0.83,0.41-1.26c0.27-0.43,0.69-0.91,1.24-1.46c1.04-1.04,2.25-1.88,3.63-2.52
	c1.37-0.63,2.69-0.95,3.96-0.95c1.81,0,3.41,0.39,4.78,1.15c1.37,0.77,2.43,1.83,3.17,3.17c0.74,1.35,1.11,2.87,1.11,4.58
	c0,1.68-0.45,3.4-1.34,5.18c-0.89,1.77-2.1,3.47-3.61,5.09l-5.24,5.57h8.49C435.3,314.37,435.85,314.59,436.29,315.03"/>
<path class="st0" d="M444.88,317.46c-1.66-1.24-2.92-2.97-3.77-5.22c-0.85-2.24-1.28-4.83-1.28-7.77c0-2.94,0.43-5.53,1.28-7.77
	c0.85-2.24,2.11-3.98,3.77-5.22c1.66-1.24,3.65-1.86,5.96-1.86c2.31,0,4.3,0.62,5.96,1.86c1.66,1.24,2.92,2.98,3.77,5.22
	c0.85,2.24,1.28,4.83,1.28,7.77c0,2.94-0.43,5.53-1.28,7.77c-0.85,2.24-2.11,3.98-3.77,5.22c-1.66,1.24-3.65,1.86-5.96,1.86
	C448.53,319.32,446.55,318.7,444.88,317.46 M454.99,311.85c1-1.68,1.51-4.14,1.51-7.38s-0.5-5.7-1.51-7.38
	c-1-1.68-2.38-2.52-4.14-2.52c-1.76,0-3.14,0.84-4.14,2.52c-1,1.68-1.5,4.14-1.5,7.38s0.5,5.7,1.5,7.38c1,1.68,2.38,2.52,4.14,2.52
	C452.6,314.37,453.98,313.53,454.99,311.85"/>
<path class="st0" d="M482.78,315.03c0.44,0.44,0.66,0.99,0.66,1.65c0,0.63-0.22,1.16-0.66,1.59c-0.44,0.43-0.99,0.64-1.65,0.64
	h-14.02c-0.72,0-1.28-0.22-1.69-0.66c-0.41-0.44-0.62-1-0.62-1.69c0-0.69,0.25-1.29,0.74-1.81l8.99-9.61
	c1.02-1.1,1.82-2.21,2.41-3.32c0.59-1.11,0.89-2.14,0.89-3.07c0-1.24-0.44-2.31-1.32-3.22c-0.88-0.91-1.9-1.36-3.05-1.36
	c-0.8,0-1.6,0.27-2.41,0.8c-0.81,0.54-1.55,1.24-2.21,2.12c-0.49,0.66-1.13,0.99-1.9,0.99c-0.6,0-1.16-0.23-1.67-0.7
	c-0.51-0.47-0.76-0.99-0.76-1.57c0-0.41,0.14-0.83,0.41-1.26c0.28-0.43,0.69-0.91,1.24-1.46c1.04-1.04,2.25-1.88,3.63-2.52
	c1.37-0.63,2.69-0.95,3.96-0.95c1.81,0,3.41,0.39,4.78,1.15c1.37,0.77,2.43,1.83,3.17,3.17c0.74,1.35,1.11,2.87,1.11,4.58
	c0,1.68-0.45,3.4-1.34,5.18c-0.89,1.77-2.1,3.47-3.61,5.09l-5.24,5.57h8.49C481.79,314.37,482.34,314.59,482.78,315.03"/>
<path class="st0" d="M497.95,290.76c0.47,0.48,0.7,1.08,0.7,1.79v23.83c0,0.72-0.26,1.31-0.78,1.79c-0.52,0.48-1.17,0.72-1.94,0.72
	c-0.77,0-1.4-0.24-1.9-0.72c-0.49-0.48-0.74-1.08-0.74-1.79v-19.54l-2.56,1.57c-0.41,0.25-0.85,0.37-1.32,0.37
	c-0.69,0-1.27-0.26-1.75-0.78c-0.48-0.52-0.72-1.1-0.72-1.73c0-0.44,0.12-0.85,0.35-1.24c0.23-0.38,0.54-0.69,0.93-0.91l6.23-3.71
	c0.47-0.25,1.06-0.37,1.77-0.37C496.9,290.04,497.48,290.28,497.95,290.76"/>
</svg>
